<?xml version="1.0" standalone="no"?>
<!DOCTYPE svg PUBLIC "-//W3C//DTD SVG 20010904//EN"
 "http://www.w3.org/TR/2001/REC-SVG-20010904/DTD/svg10.dtd">
<svg version="1.0" xmlns="http://www.w3.org/2000/svg"
 width="255.000000pt" height="245.000000pt" viewBox="0 0 255.000000 245.000000"
 preserveAspectRatio="xMidYMid meet">
<metadata>
Created by potrace 1.10, written by Peter Selinger 2001-2011
</metadata>
<g transform="translate(0.000000,245.000000) scale(0.100000,-0.100000)"
fill="#000000" stroke="none">
<path d="M1215 2270 c-16 -10 -55 -46 -85 -80 -51 -55 -61 -62 -130 -81 -168
-47 -344 -164 -455 -304 -90 -113 -165 -265 -165 -333 0 -21 -17 -44 -71 -97
-83 -83 -113 -127 -104 -154 3 -11 39 -51 78 -88 66 -61 74 -74 90 -132 25
-89 96 -234 150 -306 121 -162 361 -324 480 -325 35 0 48 -9 132 -90 63 -61
101 -90 117 -90 15 0 46 24 96 76 65 67 81 78 135 94 229 66 408 199 531 393
48 74 94 182 102 238 5 38 18 56 84 124 88 91 101 111 89 142 -8 21 -62 79
-127 136 -18 16 -32 37 -32 47 0 10 -13 54 -28 98 -95 269 -333 497 -585 561
-64 17 -76 24 -141 88 -66 64 -113 103 -126 103 -3 0 -18 -9 -35 -20z m802
-797 c7 -16 12 -34 13 -42 0 -7 -176 163 -390 379 l-391 393 -37 -36 c-32 -31
-92 -60 -92 -44 0 3 30 34 66 69 l65 63 377 -377 c207 -208 382 -390 389 -405z
m-684 613 c9 -7 17 -15 17 -18 0 -2 -46 -4 -102 -5 -251 -2 -462 -100 -634
-295 -40 -46 -73 -96 -67 -102 4 -3 2 -6 -4 -6 -6 0 -27 -35 -46 -77 -20 -43
-48 -91 -62 -108 l-25 -30 0 26 c0 14 3 29 7 33 5 4 8 11 8 14 1 4 9 22 18 40
10 17 15 32 13 32 -9 0 67 124 110 180 23 30 58 69 76 87 67 64 89 83 97 83 4
0 16 8 27 18 16 14 164 91 179 92 3 1 24 8 47 17 24 8 63 18 88 20 25 3 47 7
49 9 12 11 188 2 204 -10z m274 -61 c160 -75 301 -199 380 -335 15 -25 31 -48
37 -52 6 -4 8 -8 4 -8 -4 0 4 -24 18 -53 34 -76 61 -187 69 -294 6 -80 5 -95
-11 -117 -11 -14 -22 -26 -26 -26 -4 0 -5 28 -2 63 8 83 -18 238 -57 338 -17
43 -36 85 -42 92 -7 7 -21 30 -32 51 -23 46 -173 206 -192 206 -7 0 -13 4 -13
9 0 11 -100 74 -117 74 -7 0 -13 4 -13 8 0 4 -10 9 -22 13 -33 8 -118 64 -118
76 0 15 26 6 137 -45z m89 -325 c368 -365 342 -328 343 -495 l1 -80 -298 -300
c-164 -165 -310 -315 -324 -334 l-26 -34 -128 -7 -129 -6 -325 320 c-182 180
-330 334 -337 351 -7 17 -12 77 -12 135 l-1 105 328 330 327 330 110 6 c61 3
118 5 127 5 10 -1 164 -147 344 -326z m-1026 -75 l-389 -388 39 -36 c25 -23
41 -48 45 -71 l7 -35 -71 70 -71 70 381 381 c262 262 392 385 413 391 17 5 32
9 33 8 2 -1 -172 -176 -387 -390z m1114 186 c63 -61 121 -129 114 -136 -2 -2
-53 46 -114 106 -109 112 -110 134 0 30z m-1074 -36 c-57 -57 -106 -102 -109
-100 -8 9 86 120 138 163 92 75 78 45 -29 -63z m1505 -484 l51 -54 -381 -381
c-246 -246 -392 -385 -413 -393 -18 -6 -32 -8 -32 -4 0 4 174 182 387 394
l388 387 -33 29 c-30 28 -52 67 -52 93 0 14 23 -5 85 -71z m-1790 -43 c0 -122
9 -188 40 -277 27 -79 81 -183 114 -218 12 -12 21 -26 21 -30 0 -12 105 -111
165 -158 28 -21 88 -56 135 -78 82 -39 130 -72 130 -89 0 -11 -66 15 -166 64
-97 47 -201 127 -267 206 -27 31 -57 67 -68 80 -10 12 -16 22 -13 22 3 0 -3
12 -14 28 -62 91 -109 247 -119 398 -6 89 -5 96 17 119 13 14 24 25 25 25 0 0
1 -42 0 -92z m861 -937 c31 32 94 58 94 40 0 -4 -30 -35 -66 -70 l-66 -64
-375 374 c-340 339 -403 410 -403 451 0 7 176 -163 390 -377 l390 -391 36 37z
m795 675 c-6 -14 -9 -26 -6 -26 4 0 -76 -163 -102 -204 -21 -34 -27 -41 -115
-132 -80 -81 -94 -94 -106 -94 -5 0 -14 -6 -20 -13 -26 -31 -240 -122 -312
-133 -14 -2 -71 -7 -128 -10 -90 -6 -104 -5 -122 11 -11 10 -20 21 -20 24 0 3
55 6 123 7 85 0 140 5 182 17 87 25 185 68 185 80 0 6 3 8 6 4 16 -16 183 121
260 213 24 30 91 146 108 190 16 41 64 105 73 96 2 -2 -1 -15 -6 -30z m-1338
-315 c37 -39 67 -73 67 -76 0 -3 -13 1 -28 9 -32 16 -182 172 -182 188 0 15
68 -42 143 -121z m1146 107 c-16 -30 -147 -161 -177 -177 -21 -11 -23 -11 -14
6 12 21 186 193 196 193 4 0 1 -10 -5 -22z"/>
</g>
</svg>
