<?xml version="1.0" encoding="UTF-8"?>
<svg version="1.1" xmlns="http://www.w3.org/2000/svg" width="1280" height="1280">
<path d="M0 0 C5.08440907 4.25813287 9.85117273 8.70968807 14.52995205 13.40690422 C15.25896452 14.13476285 15.987977 14.86262148 16.73908076 15.61253643 C19.17921478 18.05002537 21.61576811 20.49106192 24.05235291 22.93209839 C25.81947063 24.69877998 27.58680811 26.46524178 29.35434633 28.23150265 C33.19563707 32.07102368 37.03537182 35.91209047 40.87373924 39.75453377 C46.58122815 45.46806645 52.2915909 51.17872041 58.00254083 56.88879337 C67.60994381 66.49488343 77.21502025 76.10329658 86.81876945 85.7130394 C96.32664845 95.22683696 105.83556216 104.73959836 115.34585762 114.25098038 C115.93734652 114.84253801 116.52883542 115.43409565 117.13824822 116.04357928 C120.14217 119.04783939 123.14611025 122.05208103 126.15005762 125.05631556 C147.42275875 146.33111667 168.69314084 167.60823493 189.9621582 188.88671875 C210.6237438 209.55748982 231.28638033 230.22720945 251.95043945 250.89550781 C252.58748064 251.53268053 253.22452184 252.16985325 253.88086731 252.82633423 C260.27834228 259.22512773 266.67583861 265.62389988 273.07335059 272.02265638 C286.1056292 285.05747114 299.13776524 298.09242843 312.16981506 311.12747192 C312.7689978 311.72679195 313.36818054 312.32611198 313.98552034 312.94359323 C353.99273539 352.96000777 393.99661673 392.97975497 434 433 C437.20724831 431.47998383 439.1621286 429.99727339 441.52978516 427.33227539 C442.54463486 426.20584373 442.54463486 426.20584373 443.57998657 425.05665588 C444.30898163 424.245186 445.03797668 423.43371613 445.7890625 422.59765625 C447.38584615 420.88282369 448.98623624 419.17134363 450.58984375 417.46289062 C453.1016666 414.78625831 455.59079137 412.10117017 458.02294922 409.35180664 C468.7060189 397.32814654 476.78910209 391.14508833 493.17520142 390.09449768 C496.12173026 389.9937271 499.05220855 389.97157408 502 390 C503.42008596 389.99387135 504.84017093 389.9874985 506.26025391 389.98071289 C507.16437012 389.98707764 508.06848633 389.99344238 509 390 C504.93445329 394.87976751 500.67173724 399.46855256 496.16845703 403.94506836 C495.51409164 404.59957977 494.85972626 405.25409119 494.18553162 405.92843628 C492.04532311 408.06795414 489.90160617 410.20391876 487.7578125 412.33984375 C486.26401251 413.83177655 484.77043472 415.32393186 483.27706909 416.81629944 C479.36337761 420.72618949 475.44669135 424.63306594 471.52935791 428.53930664 C467.52555912 432.53284006 463.52462187 436.52923809 459.5234375 440.52539062 C451.68507787 448.35305485 443.84354907 456.17753599 436 464 C433.1194737 462.69330984 431.05038191 461.30146793 428.81475639 459.07120806 C428.2047569 458.46749673 427.5947574 457.86378539 426.96627307 457.24177977 C426.30409943 456.57635304 425.64192579 455.9109263 424.95968628 455.22533512 C424.24715234 454.51720605 423.5346184 453.80907697 422.80049253 453.07948944 C420.39591323 450.6872962 417.99855457 448.28799349 415.60107422 445.88868713 C413.86847297 444.16196662 412.13544361 442.43567558 410.40202141 440.7097792 C406.12708073 436.45105549 401.8568646 432.18764413 397.58861365 427.92221947 C392.47701039 422.81449085 387.35967538 417.71251935 382.24225408 412.610621 C369.87297585 400.27825708 357.513972 387.93561766 345.15634015 375.59158543 C339.31087967 369.75266625 333.46427853 363.91488977 327.61758257 358.07720776 C307.60595505 338.09630681 287.59683332 318.11290042 267.59512329 298.12207127 C266.33931586 296.86696022 265.08350778 295.61184982 263.82769907 294.35674005 C263.20492836 293.73431488 262.58215765 293.1118897 261.94051511 292.47060316 C258.78522186 289.31706336 255.62991967 286.1635325 252.47460938 283.01000977 C251.84843003 282.38417996 251.22225068 281.75835015 250.57709619 281.1135558 C230.27302475 260.82100861 209.95508533 240.54242214 189.62889025 220.27203694 C168.14178668 198.84382322 146.66743743 177.40290892 125.20751381 155.94747394 C122.85179022 153.59233935 120.49601364 151.23725777 118.14019775 148.8822155 C117.56013025 148.30232695 116.98006274 147.7224384 116.38241743 147.12497748 C107.04584451 137.79188773 97.69772099 128.47045067 88.34539896 119.15314561 C78.94545223 109.78781603 69.55851559 100.40960247 60.18464041 91.01817644 C54.61539094 85.43925327 49.03663615 79.87024968 43.44373067 74.31503989 C39.26817676 70.16547583 35.11107576 65.99776643 30.96092248 61.8227893 C29.27934678 60.13686397 27.59182581 58.45684349 25.89784408 56.78338391 C23.59546139 54.50716086 21.31573636 52.21036426 19.04031372 49.90723515 C18.37814008 49.26287891 17.71596644 48.61852266 17.03372693 47.95464048 C12.11331878 42.90320817 9.99486473 37.70825249 8 31 C7.64333252 29.86199951 7.28666504 28.72399902 6.91918945 27.55151367 C6.65323975 26.59994385 6.38729004 25.64837402 6.11328125 24.66796875 C5.81486328 23.60255859 5.51644531 22.53714844 5.20898438 21.43945312 C4.91314453 20.36630859 4.61730469 19.29316406 4.3125 18.1875 C4.00505859 17.09501953 3.69761719 16.00253906 3.38085938 14.87695312 C2.00355477 9.92528691 0.78229716 5.08563545 0 0 Z " fill="#FFFFFF" transform="translate(205,742)"/>
<path d="M0 0 C4.87976751 4.06554671 9.46855256 8.32826276 13.94506836 12.83154297 C14.59957977 13.48590836 15.25409119 14.14027374 15.92843628 14.81446838 C18.06795414 16.95467689 20.20391876 19.09839383 22.33984375 21.2421875 C23.83177655 22.73598749 25.32393186 24.22956528 26.81629944 25.72293091 C30.72618949 29.63662239 34.63306594 33.55330865 38.53930664 37.47064209 C42.53284006 41.47444088 46.52923809 45.47537813 50.52539062 49.4765625 C58.35305485 57.31492213 66.17753599 65.15645093 74 73 C72.69330984 75.8805263 71.30146793 77.94961809 69.07120806 80.18524361 C68.16564106 81.10024285 68.16564106 81.10024285 67.24177977 82.03372693 C66.57635304 82.69590057 65.9109263 83.35807421 65.22533512 84.04031372 C64.51720605 84.75284766 63.80907697 85.4653816 63.07948944 86.19950747 C60.6872962 88.60408677 58.28799349 91.00144543 55.88868713 93.39892578 C54.16196662 95.13152703 52.43567558 96.86455639 50.7097792 98.59797859 C46.45105549 102.87291927 42.18764413 107.1431354 37.92221947 111.41138635 C32.81449085 116.52298961 27.71251935 121.64032462 22.610621 126.75774592 C10.27825708 139.12702415 -2.06438234 151.486028 -14.40841457 163.84365985 C-20.24733375 169.68912033 -26.08511023 175.53572147 -31.92279224 181.38241743 C-51.90369319 201.39404495 -71.88709958 221.40316668 -91.87792873 241.40487671 C-93.13303978 242.66068414 -94.38815018 243.91649222 -95.64325995 245.17230093 C-96.26568512 245.79507164 -96.8881103 246.41784235 -97.52939684 247.05948489 C-100.68293664 250.21477814 -103.8364675 253.37008033 -106.98999023 256.52539062 C-107.61582004 257.15156997 -108.24164985 257.77774932 -108.8864442 258.42290381 C-129.17899139 278.72697525 -149.45757786 299.04491467 -169.72796306 319.37110975 C-191.15617678 340.85821332 -212.59709108 362.33256257 -234.05252606 383.79248619 C-236.40766065 386.14820978 -238.76274223 388.50398636 -241.1177845 390.85980225 C-241.69767305 391.43986975 -242.2775616 392.01993726 -242.87502252 392.61758257 C-252.20811227 401.95415549 -261.52954933 411.30227901 -270.84685439 420.65460104 C-280.21218397 430.05454777 -289.59039753 439.44148441 -298.98182356 448.81535959 C-304.56074673 454.38460906 -310.12975032 459.96336385 -315.68496011 465.55626933 C-319.83452417 469.73182324 -324.00223357 473.88892424 -328.1772107 478.03907752 C-329.86313603 479.72065322 -331.54315651 481.40817419 -333.21661609 483.10215592 C-335.49283914 485.40453861 -337.78963574 487.68426364 -340.09276485 489.95968628 C-340.73712109 490.62185992 -341.38147734 491.28403356 -342.04535952 491.96627307 C-347.09679183 496.88668122 -352.29174751 499.00513527 -359 501 C-360.13800049 501.35666748 -361.27600098 501.71333496 -362.44848633 502.08081055 C-363.40005615 502.34676025 -364.35162598 502.61270996 -365.33203125 502.88671875 C-366.39744141 503.18513672 -367.46285156 503.48355469 -368.56054688 503.79101562 C-370.17026367 504.23477539 -370.17026367 504.23477539 -371.8125 504.6875 C-372.90498047 504.99494141 -373.99746094 505.30238281 -375.12304688 505.61914062 C-380.07471309 506.99644523 -384.91436455 508.21770284 -390 509 C-385.74186713 503.91559093 -381.29031193 499.14882727 -376.59309578 494.47004795 C-375.86523715 493.74103548 -375.13737852 493.012023 -374.38746357 492.26091924 C-371.94997463 489.82078522 -369.50893808 487.38423189 -367.06790161 484.94764709 C-365.30122002 483.18052937 -363.53475822 481.41319189 -361.76849735 479.64565367 C-357.92897632 475.80436293 -354.08790953 471.96462818 -350.24546623 468.12626076 C-344.53193355 462.41877185 -338.82127959 456.7084091 -333.11120663 450.99745917 C-323.50511657 441.39005619 -313.89670342 431.78497975 -304.2869606 422.18123055 C-294.77316304 412.67335155 -285.26040164 403.16443784 -275.74901962 393.65414238 C-275.15746199 393.06265348 -274.56590435 392.47116458 -273.95642072 391.86175178 C-270.95216061 388.85783 -267.94791897 385.85388975 -264.94368444 382.84994238 C-243.66888333 361.57724125 -222.39176507 340.30685916 -201.11328125 319.0378418 C-180.44251018 298.3762562 -159.77279055 277.71361967 -139.10449219 257.04956055 C-138.46731947 256.41251936 -137.83014675 255.77547816 -137.17366577 255.11913269 C-130.77487227 248.72165772 -124.37610012 242.32416139 -117.97734362 235.92664941 C-104.94252886 222.8943708 -91.90757157 209.86223476 -78.87252808 196.83018494 C-78.27320805 196.2310022 -77.67388802 195.63181946 -77.05640677 195.01447966 C-37.03999223 155.00726461 2.97975497 115.00338327 43 75 C41.47998383 71.79275169 39.99727339 69.8378714 37.33227539 67.47021484 C36.58132095 66.79364838 35.83036652 66.11708191 35.05665588 65.42001343 C34.245186 64.69101837 33.43371613 63.96202332 32.59765625 63.2109375 C30.88282369 61.61415385 29.17134363 60.01376376 27.46289062 58.41015625 C24.78625831 55.8983334 22.10117017 53.40920863 19.35180664 50.97705078 C7.32814654 40.2939811 1.14508833 32.21089791 0.09449768 15.82479858 C-0.0062729 12.87826974 -0.02842592 9.94779145 0 7 C-0.00612865 5.57991404 -0.0125015 4.15982907 -0.01928711 2.73974609 C-0.01292236 1.83562988 -0.00655762 0.93151367 0 0 Z " fill="#FFFFFF" transform="translate(1132,566)"/>
<path d="M0 0 C-142.89 142.89 -285.78 285.78 -433 433 C-431.19485762 436.61028476 -430.21113622 437.97212706 -427.33227539 440.52978516 C-426.58132095 441.20635162 -425.83036652 441.88291809 -425.05665588 442.57998657 C-424.245186 443.30898163 -423.43371613 444.03797668 -422.59765625 444.7890625 C-420.88282369 446.38584615 -419.17134363 447.98623624 -417.46289062 449.58984375 C-414.78625831 452.1016666 -412.10117017 454.59079137 -409.35180664 457.02294922 C-397.32814654 467.7060189 -391.14508833 475.78910209 -390.09449768 492.17520142 C-389.9937271 495.12173026 -389.97157408 498.05220855 -390 501 C-389.99387135 502.42008596 -389.9874985 503.84017093 -389.98071289 505.26025391 C-389.99026001 506.61642822 -389.99026001 506.61642822 -390 508 C-394.87976751 503.93445329 -399.46855256 499.67173724 -403.94506836 495.16845703 C-404.59957977 494.51409164 -405.25409119 493.85972626 -405.92843628 493.18553162 C-408.06795414 491.04532311 -410.20391876 488.90160617 -412.33984375 486.7578125 C-413.83177655 485.26401251 -415.32393186 483.77043472 -416.81629944 482.27706909 C-420.72618949 478.36337761 -424.63306594 474.44669135 -428.53930664 470.52935791 C-432.53284006 466.52555912 -436.52923809 462.52462187 -440.52539062 458.5234375 C-448.35305485 450.68507787 -456.17753599 442.84354907 -464 435 C-462.69330984 432.1194737 -461.30146793 430.05038191 -459.07120806 427.81475639 C-458.46749673 427.2047569 -457.86378539 426.5947574 -457.24177977 425.96627307 C-456.24363967 424.97301261 -456.24363967 424.97301261 -455.22533512 423.95968628 C-454.51720605 423.24715234 -453.80907697 422.5346184 -453.07948944 421.80049253 C-450.6872962 419.39591323 -448.28799349 416.99855457 -445.88868713 414.60107422 C-444.16196662 412.86847297 -442.43567558 411.13544361 -440.7097792 409.40202141 C-436.45105549 405.12708073 -432.18764413 400.8568646 -427.92221947 396.58861365 C-422.81449085 391.47701039 -417.71251935 386.35967538 -412.610621 381.24225408 C-400.27825708 368.87297585 -387.93561766 356.513972 -375.59158543 344.15634015 C-369.75266625 338.31087967 -363.91488977 332.46427853 -358.07720776 326.61758257 C-338.09630681 306.60595505 -318.11290042 286.59683332 -298.12207127 266.59512329 C-296.86696022 265.33931586 -295.61184982 264.08350778 -294.35674005 262.82769907 C-293.73431488 262.20492836 -293.1118897 261.58215765 -292.47060316 260.94051511 C-289.31706336 257.78522186 -286.1635325 254.62991967 -283.01000977 251.47460938 C-282.07126505 250.53534035 -282.07126505 250.53534035 -281.1135558 249.57709619 C-260.82100861 229.27302475 -240.54242214 208.95508533 -220.27203694 188.62889025 C-198.84382322 167.14178668 -177.40290892 145.66743743 -155.94747394 124.20751381 C-153.59233935 121.85179022 -151.23725777 119.49601364 -148.8822155 117.14019775 C-148.30232695 116.56013025 -147.7224384 115.98006274 -147.12497748 115.38241743 C-137.79188773 106.04584451 -128.47045067 96.69772099 -119.15314561 87.34539896 C-109.78781603 77.94545223 -100.40960247 68.55851559 -91.01817644 59.18464041 C-85.43925327 53.61539094 -79.87024968 48.03663615 -74.31503989 42.44373067 C-70.16547583 38.26817676 -65.99776643 34.11107576 -61.8227893 29.96092248 C-60.13686397 28.27934678 -58.45684349 26.59182581 -56.78338391 24.89784408 C-54.50716086 22.59546139 -52.21036426 20.31573636 -49.90723515 18.04031372 C-49.26287891 17.37814008 -48.61852266 16.71596644 -47.95464048 16.03372693 C-42.90371112 11.11380868 -37.70862197 8.99246935 -31 7 C-29.85152588 6.64333252 -28.70305176 6.28666504 -27.51977539 5.91918945 C-26.07332642 5.52026489 -26.07332642 5.52026489 -24.59765625 5.11328125 C-23.52322266 4.81486328 -22.44878906 4.51644531 -21.34179688 4.20898438 C-19.71854492 3.76522461 -19.71854492 3.76522461 -18.0625 3.3125 C-16.95326172 3.00505859 -15.84402344 2.69761719 -14.70117188 2.38085938 C-11.80275133 1.57954166 -8.90389113 0.78125549 -6 0 C-5.26837646 -0.2163208 -4.53675293 -0.4326416 -3.78295898 -0.65551758 C-2 -1 -2 -1 0 0 Z " fill="#FFFFFF" transform="translate(538,206)"/>
<path d="M0 0 C2.8805263 1.30669016 4.94961809 2.69853207 7.18524361 4.92879194 C7.7952431 5.53250327 8.4052426 6.13621461 9.03372693 6.75822023 C9.69590057 7.42364696 10.35807421 8.0890737 11.04031372 8.77466488 C12.10911463 9.83685849 12.10911463 9.83685849 13.19950747 10.92051056 C15.60408677 13.3127038 18.00144543 15.71200651 20.39892578 18.11131287 C22.13152703 19.83803338 23.86455639 21.56432442 25.59797859 23.2902208 C29.87291927 27.54894451 34.1431354 31.81235587 38.41138635 36.07778053 C43.52298961 41.18550915 48.64032462 46.28748065 53.75774592 51.389379 C66.12702415 63.72174292 78.486028 76.06438234 90.84365985 88.40841457 C96.68912033 94.24733375 102.53572147 100.08511023 108.38241743 105.92279224 C128.39404495 125.90369319 148.40316668 145.88709958 168.40487671 165.87792873 C169.66068414 167.13303978 170.91649222 168.38815018 172.17230093 169.64325995 C172.79507164 170.26568512 173.41784235 170.8881103 174.05948489 171.52939684 C177.21477814 174.68293664 180.37008033 177.8364675 183.52539062 180.98999023 C184.46465965 181.92873495 184.46465965 181.92873495 185.42290381 182.8864442 C205.72697525 203.17899139 226.04491467 223.45757786 246.37110975 243.72796306 C267.85821332 265.15617678 289.33256257 286.59709108 310.79248619 308.05252606 C313.14820978 310.40766065 315.50398636 312.76274223 317.85980225 315.1177845 C318.72990351 315.98761732 318.72990351 315.98761732 319.61758257 316.87502252 C328.95415549 326.20811227 338.30227901 335.52954933 347.65460104 344.84685439 C357.05454777 354.21218397 366.44148441 363.59039753 375.81535959 372.98182356 C381.38460906 378.56074673 386.96336385 384.12975032 392.55626933 389.68496011 C396.73182324 393.83452417 400.88892424 398.00223357 405.03907752 402.1772107 C406.72065322 403.86313603 408.40817419 405.54315651 410.10215592 407.21661609 C412.40453861 409.49283914 414.68426364 411.78963574 416.95968628 414.09276485 C417.62185992 414.73712109 418.28403356 415.38147734 418.96627307 416.04535952 C423.88668122 421.09679183 426.00513527 426.29174751 428 433 C428.35666748 434.13800049 428.71333496 435.27600098 429.08081055 436.44848633 C429.34676025 437.40005615 429.61270996 438.35162598 429.88671875 439.33203125 C430.18513672 440.39744141 430.48355469 441.46285156 430.79101562 442.56054688 C431.08685547 443.63369141 431.38269531 444.70683594 431.6875 445.8125 C431.99494141 446.90498047 432.30238281 447.99746094 432.61914062 449.12304688 C433.99644523 454.07471309 435.21770284 458.91436455 436 464 C430.91559093 459.74186713 426.14882727 455.29031193 421.47004795 450.59309578 C420.74103548 449.86523715 420.012023 449.13737852 419.26091924 448.38746357 C416.82078522 445.94997463 414.38423189 443.50893808 411.94764709 441.06790161 C410.18052937 439.30122002 408.41319189 437.53475822 406.64565367 435.76849735 C402.80436293 431.92897632 398.96462818 428.08790953 395.12626076 424.24546623 C389.41877185 418.53193355 383.7084091 412.82127959 377.99745917 407.11120663 C368.39005619 397.50511657 358.78497975 387.89670342 349.18123055 378.2869606 C339.67335155 368.77316304 330.16443784 359.26040164 320.65414238 349.74901962 C320.06265348 349.15746199 319.47116458 348.56590435 318.86175178 347.95642072 C315.85783 344.95216061 312.85388975 341.94791897 309.84994238 338.94368444 C288.57724125 317.66888333 267.30685916 296.39176507 246.0378418 275.11328125 C225.3762562 254.44251018 204.71361967 233.77279055 184.04956055 213.10449219 C183.41251936 212.46731947 182.77547816 211.83014675 182.11913269 211.17366577 C175.72165772 204.77487227 169.32416139 198.37610012 162.92664941 191.97734362 C149.8943708 178.94252886 136.86223476 165.90757157 123.83018494 152.87252808 C122.93141083 151.97354803 122.93141083 151.97354803 122.01447966 151.05640677 C82.00726461 111.03999223 42.00338327 71.02024503 2 31 C-1.20724831 32.52001617 -3.1621286 34.00272661 -5.52978516 36.66772461 C-6.20635162 37.41867905 -6.88291809 38.16963348 -7.57998657 38.94334412 C-8.30898163 39.754814 -9.03797668 40.56628387 -9.7890625 41.40234375 C-11.38584615 43.11717631 -12.98623624 44.82865637 -14.58984375 46.53710938 C-17.1016666 49.21374169 -19.59079137 51.89882983 -22.02294922 54.64819336 C-32.7060189 66.67185346 -40.78910209 72.85491167 -57.17520142 73.90550232 C-60.12173026 74.0062729 -63.05220855 74.02842592 -66 74 C-67.42008596 74.00612865 -68.84017093 74.0125015 -70.26025391 74.01928711 C-71.16437012 74.01292236 -72.06848633 74.00655762 -73 74 C-68.93445329 69.12023249 -64.67173724 64.53144744 -60.16845703 60.05493164 C-59.51409164 59.40042023 -58.85972626 58.74590881 -58.18553162 58.07156372 C-56.04532311 55.93204586 -53.90160617 53.79608124 -51.7578125 51.66015625 C-50.26401251 50.16822345 -48.77043472 48.67606814 -47.27706909 47.18370056 C-43.36337761 43.27381051 -39.44669135 39.36693406 -35.52935791 35.46069336 C-31.52555912 31.46715994 -27.52462187 27.47076191 -23.5234375 23.47460938 C-15.68507787 15.64694515 -7.84354907 7.82246401 0 0 Z " fill="#FFFFFF" transform="translate(639,74)"/>
<path d="M0 0 C1.13160631 3.39481894 0.86015377 4.28916727 -0.1171875 7.62890625 C-0.38950195 8.56782715 -0.66181641 9.50674805 -0.94238281 10.47412109 C-1.40402832 12.00286865 -1.40402832 12.00286865 -1.875 13.5625 C-2.19307617 14.62807129 -2.51115234 15.69364258 -2.83886719 16.79150391 C-20.49578281 75.117217 -47.92412332 130.27167783 -86 178 C-86.74781738 178.94286865 -86.74781738 178.94286865 -87.51074219 179.90478516 C-93.87180875 187.90735491 -100.37146212 195.69999097 -107.3671875 203.15625 C-109.35273529 205.30087729 -111.26643019 207.46695108 -113.16796875 209.68359375 C-117.69066968 214.87428167 -122.56093085 219.70672645 -127.4375 224.5625 C-128.34048828 225.46935547 -129.24347656 226.37621094 -130.17382812 227.31054688 C-135.2877543 232.41706693 -140.49988918 237.31395014 -146 242 C-147.08320624 242.94918161 -148.16528745 243.89964904 -149.24609375 244.8515625 C-158.18934504 252.6525597 -167.48014835 259.91790286 -177 267 C-178.09103027 267.81452637 -178.09103027 267.81452637 -179.20410156 268.64550781 C-190.45228955 277.01081952 -202.01230737 284.73533404 -214 292 C-214.74266113 292.45052734 -215.48532227 292.90105469 -216.25048828 293.36523438 C-246.85845816 311.79323645 -279.1319278 326.64987987 -313 338 C-314.517146 338.50974365 -314.517146 338.50974365 -316.06494141 339.02978516 C-344.71392952 348.5279672 -374.11538816 354.91943379 -404 359 C-405.10956055 359.16371094 -406.21912109 359.32742188 -407.36230469 359.49609375 C-426.64418217 362.26947524 -445.98783462 362.28558468 -465.42286301 362.30962753 C-467.55544536 362.31249053 -469.68801048 362.31803178 -471.82058716 362.32363892 C-475.86099671 362.33185157 -479.90102508 362.31839661 -483.94140625 362.30078125 C-485.16827148 362.30154663 -486.39513672 362.30231201 -487.65917969 362.30310059 C-489.3719812 362.28902161 -489.3719812 362.28902161 -491.11938477 362.2746582 C-492.11398209 362.27005081 -493.10857941 362.26544342 -494.13331604 362.26069641 C-500.33562785 361.6966578 -503.86540876 359.63453056 -508.1796875 355.24609375 C-509.1078125 354.30958984 -510.0359375 353.37308594 -510.9921875 352.40820312 C-511.70133301 351.67742554 -511.70133301 351.67742554 -512.42480469 350.93188477 C-513.88270021 349.42956515 -515.35386659 347.94132834 -516.828125 346.45507812 C-524 339.16768973 -524 339.16768973 -524 338 C-523.31413818 338.05534912 -522.62827637 338.11069824 -521.92163086 338.16772461 C-436.93255482 344.91155271 -354.00383149 335.68525667 -276 300 C-274.43765625 299.2889209 -274.43765625 299.2889209 -272.84375 298.56347656 C-236.05354822 281.69002924 -202.01844668 259.98077924 -171 234 C-170.40767578 233.50677246 -169.81535156 233.01354492 -169.20507812 232.50537109 C-153.56066402 219.44655831 -137.96622819 205.53384587 -124.7265625 190.00390625 C-122.78258954 187.74766614 -120.76676482 185.56636107 -118.75 183.375 C-113.65293289 177.72409199 -108.99453849 171.76845587 -104.35107422 165.74511719 C-103.08980935 164.11600239 -101.81305179 162.49891494 -100.53515625 160.8828125 C-79.15740175 133.64956284 -61.49241168 103.49589979 -46.8125 72.1875 C-46.30952393 71.12023682 -45.80654785 70.05297363 -45.28833008 68.95336914 C-42.73478267 63.3697511 -40.5817507 57.8700018 -38.86328125 51.97265625 C-31.89643436 28.96208489 -17.63140681 15.67885158 0 0 Z " fill="#FFFFFF" transform="translate(1106,760)"/>
<path d="M0 0 C-0.05534912 0.68586182 -0.11069824 1.37172363 -0.16772461 2.07836914 C-6.91155271 87.06744518 2.31474333 169.99616851 38 248 C38.47405273 249.0415625 38.94810547 250.083125 39.43652344 251.15625 C56.30997076 287.94645178 78.01922076 321.98155332 104 353 C104.49322754 353.59232422 104.98645508 354.18464844 105.49462891 354.79492188 C118.55344169 370.43933598 132.46615413 386.03377181 147.99609375 399.2734375 C150.25233386 401.21741046 152.43363893 403.23323518 154.625 405.25 C160.27590801 410.34706711 166.23154413 415.00546151 172.25488281 419.64892578 C173.88399761 420.91019065 175.50108506 422.18694821 177.1171875 423.46484375 C204.35043716 444.84259825 234.50410021 462.50758832 265.8125 477.1875 C266.87976318 477.69047607 267.94702637 478.19345215 269.04663086 478.71166992 C274.6302489 481.26521733 280.1299982 483.4182493 286.02734375 485.13671875 C309.03791511 492.10356564 322.32114842 506.36859319 338 524 C334.60518106 525.13160631 333.71083273 524.86015377 330.37109375 523.8828125 C329.43217285 523.61049805 328.49325195 523.33818359 327.52587891 523.05761719 C325.99713135 522.59597168 325.99713135 522.59597168 324.4375 522.125 C323.37192871 521.80692383 322.30635742 521.48884766 321.20849609 521.16113281 C262.882783 503.50421719 207.72832217 476.07587668 160 438 C159.05713135 437.25218262 159.05713135 437.25218262 158.09521484 436.48925781 C150.09264509 430.12819125 142.30000903 423.62853788 134.84375 416.6328125 C132.69912271 414.64726471 130.53304892 412.73356981 128.31640625 410.83203125 C123.12571833 406.30933032 118.29327355 401.43906915 113.4375 396.5625 C112.53064453 395.65951172 111.62378906 394.75652344 110.68945312 393.82617188 C105.58293307 388.7122457 100.68604986 383.50011082 96 378 C95.05081839 376.91679376 94.10035096 375.83471255 93.1484375 374.75390625 C85.3474403 365.81065496 78.08209714 356.51985165 71 347 C70.45698242 346.27264648 69.91396484 345.54529297 69.35449219 344.79589844 C60.98918048 333.54771045 53.26466596 321.98769263 46 310 C45.54947266 309.25733887 45.09894531 308.51467773 44.63476562 307.74951172 C26.20676355 277.14154184 11.35012013 244.8680722 0 211 C-0.3398291 209.98856934 -0.6796582 208.97713867 -1.02978516 207.93505859 C-10.5279672 179.28607048 -16.91943379 149.88461184 -21 120 C-21.16371094 118.89043945 -21.32742187 117.78087891 -21.49609375 116.63769531 C-24.26947524 97.35581783 -24.28558468 78.01216538 -24.30962753 58.57713699 C-24.31249053 56.44455464 -24.31803178 54.31198952 -24.32363892 52.17941284 C-24.33185157 48.13900329 -24.31839661 44.09897492 -24.30078125 40.05859375 C-24.30154663 38.83172852 -24.30231201 37.60486328 -24.30310059 36.34082031 C-24.2937146 35.19895264 -24.28432861 34.05708496 -24.2746582 32.88061523 C-24.27005081 31.88601791 -24.26544342 30.89142059 -24.26069641 29.86668396 C-23.6966578 23.66437215 -21.63453056 20.13459124 -17.24609375 15.8203125 C-16.30958984 14.8921875 -15.37308594 13.9640625 -14.40820312 13.0078125 C-13.92101807 12.53504883 -13.43383301 12.06228516 -12.93188477 11.57519531 C-11.42956515 10.11729979 -9.94132834 8.64613341 -8.45507812 7.171875 C-1.16768973 0 -1.16768973 0 0 0 Z " fill="#FFFFFF" transform="translate(182,582)"/>
<path d="M0 0 C9.805179 1.35731197 19.00306378 4.30563348 28.375 7.375 C29.18646484 7.63943909 29.99792969 7.90387817 30.83398438 8.17633057 C63.13355717 18.74814894 94.74784512 32.62870041 124 50 C124.81307617 50.48259277 125.62615234 50.96518555 126.46386719 51.46240234 C144.40622728 62.19197426 161.65363338 73.95947791 178 87 C178.6285791 87.49854492 179.2571582 87.99708984 179.90478516 88.51074219 C187.90735491 94.87180875 195.69999097 101.37146212 203.15625 108.3671875 C205.30087729 110.35273529 207.46695108 112.26643019 209.68359375 114.16796875 C214.87428167 118.69066968 219.70672645 123.56093085 224.5625 128.4375 C225.9227832 129.79198242 225.9227832 129.79198242 227.31054688 131.17382812 C232.41706693 136.2877543 237.31395014 141.49988918 242 147 C242.94918161 148.08320624 243.89964904 149.16528745 244.8515625 150.24609375 C252.6525597 159.18934504 259.91790286 168.48014835 267 178 C267.81452637 179.09103027 267.81452637 179.09103027 268.64550781 180.20410156 C277.01081952 191.45228955 284.73533404 203.01230737 292 215 C292.45052734 215.74266113 292.90105469 216.48532227 293.36523438 217.25048828 C311.79323645 247.85845816 326.64987987 280.1319278 338 314 C338.3398291 315.01143066 338.6796582 316.02286133 339.02978516 317.06494141 C348.5279672 345.71392952 354.91943379 375.11538816 359 405 C359.16371094 406.10956055 359.32742188 407.21912109 359.49609375 408.36230469 C362.26947524 427.64418217 362.28558468 446.98783462 362.30962753 466.42286301 C362.31249053 468.55544536 362.31803178 470.68801048 362.32363892 472.82058716 C362.33185157 476.86099671 362.31839661 480.90102508 362.30078125 484.94140625 C362.30154663 486.16827148 362.30231201 487.39513672 362.30310059 488.65917969 C362.2937146 489.80104736 362.28432861 490.94291504 362.2746582 492.11938477 C362.27005081 493.11398209 362.26544342 494.10857941 362.26069641 495.13331604 C361.6966578 501.33562785 359.63453056 504.86540876 355.24609375 509.1796875 C354.30958984 510.1078125 353.37308594 511.0359375 352.40820312 511.9921875 C351.67742554 512.70133301 351.67742554 512.70133301 350.93188477 513.42480469 C349.42956515 514.88270021 347.94132834 516.35386659 346.45507812 517.828125 C339.16768973 525 339.16768973 525 338 525 C338.05534912 524.31413818 338.11069824 523.62827637 338.16772461 522.92163086 C344.91155271 437.93255482 335.68525667 355.00383149 300 277 C299.2889209 275.43765625 299.2889209 275.43765625 298.56347656 273.84375 C281.69002924 237.05354822 259.98077924 203.01844668 234 172 C233.50677246 171.40767578 233.01354492 170.81535156 232.50537109 170.20507812 C219.44655831 154.56066402 205.53384587 138.96622819 190.00390625 125.7265625 C187.74766614 123.78258954 185.56636107 121.76676482 183.375 119.75 C177.72409199 114.65293289 171.76845587 109.99453849 165.74511719 105.35107422 C164.11600239 104.08980935 162.49891494 102.81305179 160.8828125 101.53515625 C133.64956284 80.15740175 103.49589979 62.49241168 72.1875 47.8125 C71.12023682 47.30952393 70.05297363 46.80654785 68.95336914 46.28833008 C63.3697511 43.73478267 57.8700018 41.5817507 51.97265625 39.86328125 C29.22342398 32.97710222 15.19652948 18.84116233 0 1 C0 0.67 0 0.34 0 0 Z " fill="#FFFFFF" transform="translate(760,173)"/>
<path d="M0 0 C2.13258235 -0.002863 4.26514748 -0.00840425 6.39772415 -0.01401138 C10.43813371 -0.02222404 14.47816207 -0.00876908 18.51854324 0.00884628 C19.74540848 0.0080809 20.97227371 0.00731552 22.23631668 0.00652695 C23.37818436 0.01591293 24.52005203 0.02529892 25.69652176 0.03496933 C26.69111908 0.03957672 27.6857164 0.04418411 28.71045303 0.04893112 C34.91276484 0.61296973 38.44254575 2.67509698 42.75682449 7.06353378 C43.68494949 8.00003769 44.61307449 8.9365416 45.56932449 9.90142441 C46.04208817 10.38860947 46.51485184 10.87579453 47.00194168 11.37774277 C48.4598372 12.88006238 49.93100359 14.36829919 51.40526199 15.85454941 C58.57713699 23.1419378 58.57713699 23.1419378 58.57713699 24.30962753 C57.89127518 24.25427841 57.20541336 24.19892929 56.49876785 24.14190292 C-28.49030819 17.39807483 -111.41903151 26.62437086 -189.42286301 62.30962753 C-190.46442551 62.78368027 -191.50598801 63.257733 -192.57911301 63.74615097 C-229.36931479 80.61959829 -263.40441633 102.32884829 -294.42286301 128.30962753 C-295.01518723 128.80285507 -295.60751144 129.29608261 -296.21778488 129.80425644 C-311.86219899 142.86306922 -327.45663481 156.77578167 -340.69630051 172.30572128 C-342.64027346 174.56196139 -344.65609818 176.74326646 -346.67286301 178.93462753 C-351.76993011 184.58553555 -356.42832451 190.54117167 -361.07178879 196.56451035 C-362.33305366 198.19362514 -363.60981122 199.8107126 -364.88770676 201.42681503 C-386.26546126 228.66006469 -403.93045132 258.81372775 -418.61036301 290.12212753 C-419.11333908 291.18939072 -419.61631516 292.2566539 -420.13453293 293.35625839 C-422.68808034 298.93987643 -424.84111231 304.43962573 -426.55958176 310.33697128 C-433.52642865 333.34754265 -447.7914562 346.63077595 -465.42286301 362.30962753 C-466.55446932 358.9148086 -466.28301677 358.02046026 -465.30567551 354.68072128 C-465.03336105 353.74180038 -464.7610466 352.80287949 -464.48048019 351.83550644 C-464.17271652 350.8163414 -463.86495285 349.79717636 -463.54786301 348.74712753 C-463.22978683 347.68155624 -462.91171066 346.61598495 -462.58399582 345.51812363 C-444.92708019 287.19241054 -417.49873969 232.0379497 -379.42286301 184.30962753 C-378.92431808 183.68104843 -378.42577316 183.05246933 -377.91212082 182.40484238 C-371.55105426 174.40227262 -365.05140089 166.60963656 -358.05567551 159.15337753 C-356.07012771 157.00875024 -354.15643282 154.84267645 -352.25489426 152.62603378 C-347.73219333 147.43534586 -342.86193216 142.60290108 -337.98536301 137.74712753 C-336.63088058 136.38684433 -336.63088058 136.38684433 -335.24903488 134.99908066 C-330.1351087 129.8925606 -324.92297383 124.99567739 -319.42286301 120.30962753 C-318.33965677 119.36044593 -317.25757555 118.40997849 -316.17676926 117.45806503 C-307.23351797 109.65706784 -297.94271465 102.39172467 -288.42286301 95.30962753 C-287.69550949 94.76660995 -286.96815598 94.22359238 -286.21876144 93.66411972 C-274.97057345 85.29880802 -263.41055563 77.57429349 -251.42286301 70.30962753 C-250.68020187 69.85910019 -249.93754074 69.40857285 -249.17237473 68.94439316 C-218.56440485 50.51639108 -186.29093521 35.65974766 -152.42286301 24.30962753 C-151.41143234 23.96979843 -150.40000168 23.62996933 -149.3579216 23.27984238 C-120.70893349 13.78166033 -91.30747485 7.39019374 -61.42286301 3.30962753 C-59.75852219 3.06406113 -59.75852219 3.06406113 -58.06055832 2.81353378 C-38.77868083 0.0401523 -19.43502839 0.02404285 0 0 Z " fill="#FFFFFF" transform="translate(639.4228630065918,157.69037246704102)"/>
<path d="M0 0 C0.99 0 1.98 0 3 0 C3 0.66 3 1.32 3 2 C4.0828125 2.061875 4.0828125 2.061875 5.1875 2.125 C8.48415237 3.15062518 9.69568253 4.69511633 11.75390625 7.39453125 C13.11275499 9.21434863 13.11275499 9.21434863 15.4375 11.4375 C17.40972892 13.40972892 19.20548893 15.37504188 21 17.5 C24.13194197 21.19632745 27.49922567 24.58050551 31.01953125 27.91015625 C31.73496094 28.59980469 32.45039062 29.28945313 33.1875 30 C33.86167969 30.639375 34.53585937 31.27875 35.23046875 31.9375 C37 34 37 34 38.05078125 36.6875 C38.36402344 37.450625 38.67726563 38.21375 39 39 C39.99 39.33 40.98 39.66 42 40 C41.57843307 44.91828084 39.52992419 46.70540409 36 50 C34.96523839 51.17538306 33.94477842 52.36348076 32.9375 53.5625 C30.72842769 56.1634129 28.55082312 58.72247935 26 61 C25.34 61 24.68 61 24 61 C23.77441406 61.54398438 23.54882812 62.08796875 23.31640625 62.6484375 C21.58776213 65.73640119 19.35449856 68.04454974 16.9375 70.625 C13.58466353 74.04209753 13.58466353 74.04209753 11 78 C11.76666992 77.98952637 12.53333984 77.97905273 13.32324219 77.96826172 C16.79879474 77.92667301 20.27429491 77.90066449 23.75 77.875 C24.9565625 77.85824219 26.163125 77.84148437 27.40625 77.82421875 C28.56640625 77.81777344 29.7265625 77.81132813 30.921875 77.8046875 C31.99018555 77.79421387 33.05849609 77.78374023 34.15917969 77.77294922 C37.00990949 78.00079201 38.61522138 78.46477305 41 80 C43.54666957 83.43800392 43.50951861 86.85106275 43 91 C40.94838371 93.86388886 39.3314666 95.70090565 35.80786133 96.49243164 C33.25802411 96.71555826 30.7468687 96.79532303 28.1875 96.8125 C27.30384766 96.83763672 26.42019531 96.86277344 25.50976562 96.88867188 C23.34031866 96.94730558 21.17011273 96.97657386 19 97 C19.825 97.94875 20.65 98.8975 21.5 99.875 C24 102.75 24 102.75 24 105 C24.99 105.33 25.98 105.66 27 106 C28.24812471 107.44519704 29.49114111 108.89604571 30.6796875 110.390625 C32.12841464 112.21023954 32.12841464 112.21023954 34.5 114.5 C37.25797682 117.25797682 39.71075811 119.83545974 42 123 C41.8125 125.375 41.8125 125.375 41 127 C40.34 127 39.68 127 39 127 C38.76925781 127.72316406 38.53851562 128.44632813 38.30078125 129.19140625 C36.75188365 132.53572269 34.8552486 134.40573858 32.1875 136.9375 C29.29110752 139.73358452 26.49842604 142.46632924 24 145.625 C23.34 146.40875 22.68 147.1925 22 148 C21.34 148 20.68 148 20 148 C19.72671875 148.58910156 19.4534375 149.17820312 19.171875 149.78515625 C15.54151917 156.64652876 9.36135433 161.75909711 3 166 C0.05106471 165.61949222 -2.44418011 164.49823925 -5 163 C-6.62304039 159.75391921 -6.55929333 156.50829449 -6 153 C-3.53640133 147.81794762 0.60807106 144.51354315 5 141 C5.66 140.01 6.32 139.02 7 138 C7.66 138 8.32 138 9 138 C9.66 136.68 10.32 135.36 11 134 C-29.92 133.67 -70.84 133.34 -113 133 C-113 132.34 -113 131.68 -113 131 C-113.639375 130.690625 -114.27875 130.38125 -114.9375 130.0625 C-117 129 -117 129 -118 128 C-118.14115161 125.32941149 -118.04247107 122.67567762 -118 120 C-117.34 120 -116.68 120 -116 120 C-115.67 119.01 -115.34 118.02 -115 117 C-112.34081834 116.11360611 -110.51935359 115.82010975 -107.76953125 115.68359375 C-106.96708984 115.64169922 -106.16464844 115.59980469 -105.33789062 115.55664062 C-104.50451172 115.51732422 -103.67113281 115.47800781 -102.8125 115.4375 C-101.96751953 115.39431641 -101.12253906 115.35113281 -100.25195312 115.30664062 C-98.16815567 115.20068482 -96.08409897 115.0998498 -94 115 C-94.78503906 114.2265625 -95.57007813 113.453125 -96.37890625 112.65625 C-102.14625044 106.94861867 -107.77160481 101.21287673 -113 95 C-114.14516844 93.66609556 -115.29097349 92.33273732 -116.4375 91 C-117.283125 90.01 -118.12875 89.02 -119 88 C-115.375 81.125 -115.375 81.125 -112 80 C-111.28403987 78.69247435 -110.62204328 77.35472668 -110 76 C-106.69924787 71.67320762 -102.88763655 67.7972264 -99 64 C-97.45510396 62.48244725 -95.91372474 60.9613098 -94.375 59.4375 C-93.24191406 58.32181641 -93.24191406 58.32181641 -92.0859375 57.18359375 C-90.20108282 55.21049681 -88.61275835 53.19432878 -87 51 C-88.10456543 50.970271 -88.10456543 50.970271 -89.23144531 50.93994141 C-92.57132056 50.84462172 -95.91057639 50.73497004 -99.25 50.625 C-100.40886719 50.5940625 -101.56773437 50.563125 -102.76171875 50.53125 C-104.43427734 50.47324219 -104.43427734 50.47324219 -106.140625 50.4140625 C-107.16704102 50.3826416 -108.19345703 50.3512207 -109.25097656 50.31884766 C-111.96867073 50.00363375 -113.66924435 49.38967649 -116 48 C-116 47.34 -116 46.68 -116 46 C-116.66 46 -117.32 46 -118 46 C-118 43.36 -118 40.72 -118 38 C-117.34 38 -116.68 38 -116 38 C-115.67 37.01 -115.34 36.02 -115 35 C-114.34 35 -113.68 35 -113 35 C-113 34.34 -113 33.68 -113 33 C-51.62 32.505 -51.62 32.505 11 32 C10.01 30.02 10.01 30.02 9 28 C7.515 27.505 7.515 27.505 6 27 C4.75547209 25.55896768 3.51580623 24.11243565 2.33203125 22.62109375 C0.84511886 20.75784855 0.84511886 20.75784855 -1.6875 18.3125 C-4.71742276 15.28257724 -6.28820341 13.27620054 -6.3125 9 C-6.2438018 6.33058422 -6.17612544 5.26838162 -4.6875 3 C-3 2 -3 2 0 2 C0 1.34 0 0.68 0 0 Z M-69 50 C-69 52.64 -69 55.28 -69 58 C-70.21484375 60.1796875 -70.21484375 60.1796875 -71.9375 61.875 C-72.56785156 62.5246875 -73.19820312 63.174375 -73.84765625 63.84375 C-74.55792969 64.5553125 -75.26820313 65.266875 -76 66 C-77.63398172 67.78347924 -79.25889518 69.57530568 -80.875 71.375 C-81.63554688 72.20773437 -82.39609375 73.04046875 -83.1796875 73.8984375 C-85.03676667 75.86723421 -85.03676667 75.86723421 -86 78 C-59.6 78 -33.2 78 -6 78 C-5.01 73.545 -5.01 73.545 -4 69 C-2.4140625 66.51171875 -2.4140625 66.51171875 -0.625 64.6875 C0.30119141 63.71490234 0.30119141 63.71490234 1.24609375 62.72265625 C2.64005508 61.35353165 4.0380764 59.98854095 5.4375 58.625 C7.23103624 57.13544499 7.23103624 57.13544499 7 55 C7.99 54.67 8.98 54.34 10 54 C10.99 52.68 11.98 51.36 13 50 C-14.06 50 -41.12 50 -69 50 Z M-86 96 C-86.22054055 98.22237838 -86.22054055 98.22237838 -84.125 100.125 C-82.22237838 102.22054055 -82.22237838 102.22054055 -80 102 C-79.731875 102.58265625 -79.46375 103.1653125 -79.1875 103.765625 C-77.98519009 106.02786601 -76.66174087 107.80576318 -75 109.75 C-74.484375 110.36359375 -73.96875 110.9771875 -73.4375 111.609375 C-72.09376748 113.23176376 -72.09376748 113.23176376 -70 113 C-69.67 113.99 -69.34 114.98 -69 116 C-41.94 116 -14.88 116 13 116 C11.68 114.35 10.36 112.7 9 111 C8.34 111 7.68 111 7 111 C6.62875 110.13568359 6.62875 110.13568359 6.25 109.25390625 C4.81305755 106.6629194 3.14041667 104.97955193 1 102.9375 C-1.37442798 100.66346144 -3.16347952 98.75478071 -5 96 C-7.63257753 95.71355318 -10.02911842 95.62156256 -12.66259766 95.65942383 C-13.45292892 95.65898575 -14.24326019 95.65854767 -15.05754089 95.65809631 C-17.6766305 95.66019068 -20.29508437 95.68355174 -22.9140625 95.70703125 C-24.7272405 95.71262491 -26.54042303 95.71689609 -28.35360718 95.71989441 C-33.13114898 95.73136131 -37.90841814 95.76084425 -42.68585205 95.79400635 C-47.55875968 95.82466757 -52.43171126 95.83839129 -57.3046875 95.85351562 C-66.8699116 95.88571227 -76.43493315 95.9369308 -86 96 Z " fill="#FFFFFF" transform="translate(676,555)"/>
<path d="M0 0 C0.76586426 0.20367187 1.53172852 0.40734375 2.32080078 0.6171875 C34.48516563 9.55671502 64.22216144 29.44784033 84.4375 56.0625 C85.00025635 56.80201904 85.5630127 57.54153809 86.14282227 58.3034668 C91.08124503 64.90764146 95.17623616 71.69608244 99 79 C99.51820313 79.93457031 100.03640625 80.86914062 100.5703125 81.83203125 C119.48114324 117.22795789 122.46391871 162.12848701 111.4921875 200.3984375 C104.74982229 222.53011067 94.11315671 242.46765093 79 260 C78.57525391 260.49709473 78.15050781 260.99418945 77.71289062 261.50634766 C70.70758899 269.63556052 63.20625714 276.49329464 54.56201172 282.84667969 C53.2347343 283.82668259 51.92927135 284.83612089 50.62890625 285.8515625 C18.2236942 310.22767566 -24.07162805 317.84470417 -63.56176758 312.40820312 C-79.42850179 309.99989538 -93.61534072 305.03601042 -108 298 C-109.01586182 297.5064502 -109.01586182 297.5064502 -110.05224609 297.00292969 C-119.10566554 292.54838973 -127.15669284 287.39795545 -135 281 C-135.84111328 280.3191333 -135.84111328 280.3191333 -136.69921875 279.62451172 C-169.26318595 253.1078817 -189.62165265 215.9142804 -194.78065491 174.14871216 C-195.42173822 167.8686377 -195.24513688 161.49653555 -195.25 155.1875 C-195.25067474 154.40377014 -195.25134949 153.62004028 -195.25204468 152.81256104 C-195.23584674 140.97534688 -194.820472 129.55077115 -192 118 C-191.83902832 117.31486328 -191.67805664 116.62972656 -191.51220703 115.92382812 C-184.62754128 87.53863561 -169.910642 63.07769562 -150 42 C-149.30519531 41.25234375 -148.61039063 40.5046875 -147.89453125 39.734375 C-111.04894053 1.34516209 -50.9708424 -13.60062009 0 0 Z M-146.78515625 49.71484375 C-174.68483337 79.11783152 -189.09970544 119.53549494 -188.24609375 159.796875 C-186.74799728 199.41817264 -170.04844515 234.57277354 -143 263 C-142.35675781 263.70769531 -141.71351563 264.41539062 -141.05078125 265.14453125 C-116.9311284 290.83379275 -79.51307012 304.94302281 -44.8515625 306.21875 C-5.0311924 307.15983607 32.70886142 293.75327296 61.74584961 266.14648438 C63.16868005 264.76924438 64.58463212 263.38490802 66 262 C66.99193359 261.08347656 66.99193359 261.08347656 68.00390625 260.1484375 C94.29952705 235.37808473 108.54785584 196.44139338 110 161 C110.04125 160.08605469 110.0825 159.17210937 110.125 158.23046875 C110.96223327 120.81660708 97.77343183 83.12235329 73 55 C72.24589844 54.12472656 71.49179687 53.24945312 70.71484375 52.34765625 C66.13011002 47.11807147 61.39841572 42.38037538 56 38 C55.08992187 37.24074219 54.17984375 36.48148438 53.2421875 35.69921875 C32.36671068 18.68236949 4.90203821 6.6699259 -22 4 C-22.65548828 3.93441895 -23.31097656 3.86883789 -23.98632812 3.80126953 C-70.79941759 -0.56000355 -113.5082174 17.27799592 -146.78515625 49.71484375 Z " fill="#FFFFFF" transform="translate(676,483)"/>
<path d="M0 0 C5.61 0 11.22 0 17 0 C19.616262 5.3518461 22.23051915 10.70466531 24.84301758 16.05834961 C25.72985271 17.87501696 26.61721102 19.69142902 27.50512695 21.50756836 C41 49.11244373 41 49.11244373 41 52 C41.66 52 42.32 52 43 52 C43.16829819 51.45490784 43.33659637 50.90981567 43.50999451 50.34820557 C45.32593685 44.66469815 47.56447729 39.35107153 50.16015625 33.984375 C50.55069687 33.16551819 50.94123749 32.34666138 51.34361267 31.50299072 C52.57831589 28.91626982 53.82003992 26.33300276 55.0625 23.75 C56.30722123 21.15211136 57.55043493 18.55351378 58.792099 15.9541626 C59.56132657 14.34489824 60.33252121 12.7365722 61.10597229 11.1293335 C61.45651169 10.3979718 61.80705109 9.66661011 62.16821289 8.91308594 C62.62763023 7.95786041 62.62763023 7.95786041 63.09632874 6.9833374 C64.14158462 4.68925639 65.06372951 2.34067621 66 0 C71.94 0 77.88 0 84 0 C84 31.35 84 62.7 84 95 C79.71 95 75.42 95 71 95 C70.67 69.26 70.34 43.52 70 17 C63.565 30.86 63.565 30.86 57 45 C46.18918919 67.81081081 46.18918919 67.81081081 45 69 C42.32941149 69.14115161 39.67567762 69.04247107 37 69 C34.56411525 63.86315007 32.12884316 58.72601027 29.6940918 53.58862305 C28.86905696 51.84798708 28.04386665 50.10742479 27.21850586 48.36694336 C26.01893935 45.83728001 24.81996887 43.30733483 23.62109375 40.77734375 C23.26349472 40.02355942 22.90589569 39.26977509 22.53746033 38.4931488 C18.99276133 31.0100607 15.50179798 23.50385282 12 16 C11.67 42.07 11.34 68.14 11 95 C7.37 95 3.74 95 0 95 C0 63.65 0 32.3 0 0 Z " fill="#FFFFFF" transform="translate(394,374)"/>
<path d="M0 0 C0 4.95 0 9.9 0 15 C-4.42992311 13.22803076 -8.68941779 11.27718389 -12.98828125 9.21875 C-19.64737296 6.52402028 -25.81825667 5.60981552 -32.9375 5.625 C-34.12001343 5.62741699 -34.12001343 5.62741699 -35.32641602 5.62988281 C-42.3364659 5.77775275 -47.57304598 7.10850755 -53 11.6875 C-55.11513326 16.57874567 -55.51192472 21.19119932 -54.0625 26.3125 C-47.72368975 34.57216184 -35.30767881 34.9198366 -25.796875 36.62304688 C-15.69647009 38.54968336 -6.83318308 40.92654179 -0.15625 49.15625 C3.78785563 55.44549952 3.67744854 61.77959915 3 69 C1.06453086 76.71869727 -3.68066518 82.22117879 -10.2890625 86.47265625 C-24.11009944 93.99744303 -41.22919482 93.42552538 -56.12255859 89.43066406 C-68.18820305 85.81179695 -68.18820305 85.81179695 -70 84 C-70.07319621 81.30345146 -70.09242537 78.63308542 -70.0625 75.9375 C-70.05798828 75.17888672 -70.05347656 74.42027344 -70.04882812 73.63867188 C-70.0370068 71.75908129 -70.01907078 69.87953101 -70 68 C-69.35675781 68.37511719 -68.71351563 68.75023437 -68.05078125 69.13671875 C-53.97455566 77.1085612 -38.9264579 83.1710469 -22.625 78.8125 C-18.16997771 77.29879677 -15.28082918 75.36495301 -12 72 C-10.54780445 67.64341334 -10.3741039 63.54866355 -11 59 C-14.74048783 53.50615849 -20.53897408 51.75626918 -26.79882812 50.38842773 C-29.94602685 49.80225944 -33.09745148 49.24412332 -36.25 48.6875 C-56.85601755 44.78837759 -56.85601755 44.78837759 -64.0625 37.125 C-68.73139501 29.59452418 -70.24828741 22.6820091 -68.6015625 13.8671875 C-66.49929384 6.90512894 -61.43666549 1.94183617 -55.20703125 -1.578125 C-37.84905148 -9.73005072 -17.36554275 -6.9462171 0 0 Z " fill="#FFFFFF" transform="translate(443,813)"/>
<path d="M0 0 C3.96 0 7.92 0 12 0 C12 12.54 12 25.08 12 38 C27.51 38 43.02 38 59 38 C59 25.46 59 12.92 59 0 C63.29 0 67.58 0 72 0 C72 31.35 72 62.7 72 95 C67.71 95 63.42 95 59 95 C59 79.82 59 64.64 59 49 C43.49 49 27.98 49 12 49 C12 64.18 12 79.36 12 95 C8.04 95 4.08 95 0 95 C0 63.65 0 32.3 0 0 Z " fill="#FFFFFF" transform="translate(763,374)"/>
<path d="M0 0 C5.56401922 5.72299119 7.31977761 11.82568341 7.30102539 19.68286133 C7.30094986 20.74358353 7.30087433 21.80430573 7.30079651 22.89717102 C7.29563522 24.0306749 7.29047394 25.16417877 7.28515625 26.33203125 C7.2837413 27.50134689 7.28232635 28.67066254 7.28086853 29.87541199 C7.27527793 33.60446751 7.26272709 37.33346267 7.25 41.0625 C7.24498379 43.59309809 7.24042109 46.12369712 7.23632812 48.65429688 C7.22531156 54.85288779 7.20805332 61.05143366 7.1875 67.25 C3.2275 67.25 -0.7325 67.25 -4.8125 67.25 C-4.8125 64.94 -4.8125 62.63 -4.8125 60.25 C-5.34617187 60.64832031 -5.87984375 61.04664063 -6.4296875 61.45703125 C-15.1930152 67.68839403 -23.991189 70.60845274 -34.8125 69.25 C-41.88964102 67.53432945 -46.95667793 64.51571087 -50.8125 58.25 C-52.82005748 54.20728974 -53.1103638 50.80581313 -53.125 46.3125 C-53.14175781 45.12785156 -53.15851562 43.94320312 -53.17578125 42.72265625 C-52.51380749 36.39475655 -49.59816275 32.29122632 -44.8125 28.25 C-33.38606246 20.48445992 -18.10579009 20.68708097 -4.8125 20.25 C-5.11671875 18.97898437 -5.4209375 17.70796875 -5.734375 16.3984375 C-5.90549805 15.68349121 -6.07662109 14.96854492 -6.25292969 14.23193359 C-6.98944751 11.62327228 -7.81877888 10.10131247 -9.8125 8.25 C-21.99716728 3.34771404 -34.76372712 6.70344924 -46.8125 10.25 C-46.8125 5.96 -46.8125 1.67 -46.8125 -2.75 C-31.57135955 -6.01595867 -13.9431132 -8.67571488 0 0 Z M-38.45703125 37.69140625 C-41.15987839 40.799291 -41.09968323 44.28273973 -41.01953125 48.25390625 C-40.70048505 51.32999318 -39.86040103 52.93785368 -37.8125 55.25 C-31.84790241 58.7094666 -26.2402017 59.22303836 -19.51953125 57.74609375 C-17.16001575 57.03539631 -15.04700964 56.300901 -12.8125 55.25 C-11.80243896 54.82110474 -11.80243896 54.82110474 -10.77197266 54.38354492 C-8.40622826 53.20119647 -6.66635359 52.14419623 -4.8125 50.25 C-3.83082083 46.76733188 -4.04913686 43.52075809 -4.3125 39.9375 C-4.36664062 38.54047852 -4.36664062 38.54047852 -4.421875 37.11523438 C-4.51593254 34.82258193 -4.64710971 32.53842909 -4.8125 30.25 C-22.79744491 29.89803643 -22.79744491 29.89803643 -38.45703125 37.69140625 Z " fill="#FFFFFF" transform="translate(731.8125,401.75)"/>
<path d="M0 0 C6.65565848 5.45938 9.46079121 11.11660233 11.515625 19.3359375 C11.515625 24.2859375 11.515625 29.2359375 11.515625 34.3359375 C-5.644375 34.3359375 -22.804375 34.3359375 -40.484375 34.3359375 C-38.10845331 46.44786043 -38.10845331 46.44786043 -30.49609375 55.0390625 C-23.80271114 59.35401983 -16.14254654 59.00998653 -8.484375 58.3359375 C-3.22971485 57.11125781 1.60048183 55.49053461 6.23046875 52.69921875 C8.515625 51.3359375 8.515625 51.3359375 10.515625 51.3359375 C10.515625 55.6259375 10.515625 59.9159375 10.515625 64.3359375 C-5.43689726 69.96501762 -5.43689726 69.96501762 -12.484375 70.3359375 C-13.70125 70.4184375 -14.918125 70.5009375 -16.171875 70.5859375 C-27.85371494 70.35598002 -37.63695692 66.53324201 -45.796875 58.2109375 C-53.51034457 48.2844112 -53.7511778 35.34609794 -52.484375 23.3359375 C-50.72064371 14.75508754 -46.38970858 8.13572153 -40.171875 2.0859375 C-28.34224939 -5.61707452 -12.30052929 -8.23903377 0 0 Z M-34.171875 10.5234375 C-37.98031309 15.15532166 -40.484375 19.26974023 -40.484375 25.3359375 C-27.284375 25.3359375 -14.084375 25.3359375 -0.484375 25.3359375 C-0.34735459 16.80215754 -0.34735459 16.80215754 -4.484375 10.3359375 C-13.69905117 3.1898621 -25.09940551 3.13886931 -34.171875 10.5234375 Z " fill="#FFFFFF" transform="translate(826.484375,834.6640625)"/>
<path d="M0 0 C6.65565848 5.45938 9.46079121 11.11660233 11.515625 19.3359375 C11.515625 24.2859375 11.515625 29.2359375 11.515625 34.3359375 C-5.644375 34.3359375 -22.804375 34.3359375 -40.484375 34.3359375 C-38.10845331 46.44786043 -38.10845331 46.44786043 -30.49609375 55.0390625 C-23.80271114 59.35401983 -16.14254654 59.00998653 -8.484375 58.3359375 C-3.22971485 57.11125781 1.60048183 55.49053461 6.23046875 52.69921875 C8.515625 51.3359375 8.515625 51.3359375 10.515625 51.3359375 C10.515625 55.6259375 10.515625 59.9159375 10.515625 64.3359375 C-5.43689726 69.96501762 -5.43689726 69.96501762 -12.484375 70.3359375 C-13.70125 70.4184375 -14.918125 70.5009375 -16.171875 70.5859375 C-27.85371494 70.35598002 -37.63695692 66.53324201 -45.796875 58.2109375 C-53.51034457 48.2844112 -53.7511778 35.34609794 -52.484375 23.3359375 C-50.72064371 14.75508754 -46.38970858 8.13572153 -40.171875 2.0859375 C-28.34224939 -5.61707452 -12.30052929 -8.23903377 0 0 Z M-34.171875 10.5234375 C-37.98031309 15.15532166 -40.484375 19.26974023 -40.484375 25.3359375 C-27.284375 25.3359375 -14.084375 25.3359375 -0.484375 25.3359375 C-0.34735459 16.80215754 -0.34735459 16.80215754 -4.484375 10.3359375 C-13.69905117 3.1898621 -25.09940551 3.13886931 -34.171875 10.5234375 Z " fill="#FFFFFF" transform="translate(513.484375,834.6640625)"/>
<path d="M0 0 C6.65565848 5.45938 9.46079121 11.11660233 11.515625 19.3359375 C11.515625 24.2859375 11.515625 29.2359375 11.515625 34.3359375 C-5.644375 34.3359375 -22.804375 34.3359375 -40.484375 34.3359375 C-38.10845331 46.44786043 -38.10845331 46.44786043 -30.49609375 55.0390625 C-23.80271114 59.35401983 -16.14254654 59.00998653 -8.484375 58.3359375 C-3.22971485 57.11125781 1.60048183 55.49053461 6.23046875 52.69921875 C8.515625 51.3359375 8.515625 51.3359375 10.515625 51.3359375 C10.515625 55.6259375 10.515625 59.9159375 10.515625 64.3359375 C-5.43689726 69.96501762 -5.43689726 69.96501762 -12.484375 70.3359375 C-13.70125 70.4184375 -14.918125 70.5009375 -16.171875 70.5859375 C-27.85371494 70.35598002 -37.63695692 66.53324201 -45.796875 58.2109375 C-53.51034457 48.2844112 -53.7511778 35.34609794 -52.484375 23.3359375 C-50.72064371 14.75508754 -46.38970858 8.13572153 -40.171875 2.0859375 C-28.34224939 -5.61707452 -12.30052929 -8.23903377 0 0 Z M-34.171875 10.5234375 C-37.98031309 15.15532166 -40.484375 19.26974023 -40.484375 25.3359375 C-27.284375 25.3359375 -14.084375 25.3359375 -0.484375 25.3359375 C-0.34735459 16.80215754 -0.34735459 16.80215754 -4.484375 10.3359375 C-13.69905117 3.1898621 -25.09940551 3.13886931 -34.171875 10.5234375 Z " fill="#FFFFFF" transform="translate(550.484375,400.6640625)"/>
<path d="M0 0 C7.6515103 5.53944052 11.82558983 12.04441376 14.04296875 21.20703125 C16.10876187 34.69824938 15.47494679 48.05077507 7.30078125 59.4609375 C1.19140028 66.65150956 -5.89563759 69.9259862 -15.234375 70.77734375 C-24.43573465 71.14539814 -32.40427221 69.23348614 -39.76171875 63.5234375 C-46.73362355 56.89582429 -50.31117296 47.6982114 -50.65234375 38.23046875 C-50.86077082 25.28952193 -50.14386152 14.81505547 -41.44921875 4.5234375 C-30.56330166 -6.19860557 -13.04031625 -7.86162607 0 0 Z M-32.9765625 11.8125 C-39.70197783 19.62611251 -38.98587533 30.853681 -38.44921875 40.5234375 C-37.36978624 47.44827146 -34.81830307 52.90261188 -29.44921875 57.5234375 C-24.21984915 60.62075174 -18.16563062 61.09961727 -12.26171875 59.8984375 C-7.28167596 58.38363323 -3.79117478 55.88579459 -1.2265625 51.37109375 C3.6873759 40.78587161 4.04780854 29.12055399 0.59765625 17.97265625 C-1.44342149 13.19744825 -4.33205893 9.74916161 -8.82421875 7.1484375 C-18.30220905 4.89177314 -25.57830848 4.90296891 -32.9765625 11.8125 Z " fill="#FFFFFF" transform="translate(905.44921875,400.4765625)"/>
<path d="M0 0 C1 1 1 1 1.09765625 3.72265625 C1.08605469 4.82480469 1.07445312 5.92695312 1.0625 7.0625 C1.05347656 8.16722656 1.04445313 9.27195312 1.03515625 10.41015625 C1.02355469 11.26480469 1.01195312 12.11945312 1 13 C-1.87163311 12.06865953 -4.71869983 11.10982861 -7.53125 10.01171875 C-16.73947362 6.45517171 -24.4327107 4.75977577 -34 8 C-36.93957679 9.54327782 -37.73225654 10.27326774 -38.875 13.375 C-39.03343012 16.70203245 -38.81361476 18.17076098 -37 21 C-31.74055928 24.45745287 -26.10987078 25.87394873 -20 27 C-10.67493993 28.71861175 -3.66732018 31.10009915 2 39 C4.25027718 43.50055435 3.55430397 49.12884394 3 54 C0.82114126 60.28623926 -3.12273852 63.41999164 -8.875 66.5 C-13.59191944 68.58167227 -17.81506604 70.07687711 -23 70 C-24.18464844 69.99871094 -25.36929688 69.99742187 -26.58984375 69.99609375 C-36.11720941 69.79269536 -43.21309065 67.89419846 -52 64 C-52 59.38 -52 54.76 -52 50 C-50.65808594 50.72316406 -50.65808594 50.72316406 -49.2890625 51.4609375 C-38.51073949 57.14712762 -29.36680094 60.40357887 -17 58 C-12.64739593 56.4464309 -12.64739593 56.4464309 -10 53 C-9.49353454 48.92963569 -9.49353454 48.92963569 -10 45 C-14.2184232 40.20187805 -19.8295426 39.65133221 -25.8125 38.5 C-35.74804291 36.56493791 -44.07554774 34.71242979 -50 26 C-52.63674405 20.72651189 -52.25872401 15.63210087 -51 10 C-47.52029785 3.16947356 -42.22382802 -0.87812829 -35.125 -3.421875 C-23.36642036 -6.62090034 -11.07952064 -4.73146789 0 0 Z " fill="#FFFFFF" transform="translate(903,835)"/>
<path d="M0 0 C4.29 0 8.58 0 13 0 C18.8979526 14.6873093 24.74585743 29.39238109 30.50708008 44.13378906 C30.94947021 45.26397461 31.39186035 46.39416016 31.84765625 47.55859375 C32.23961182 48.56204834 32.63156738 49.56550293 33.03540039 50.59936523 C33.94611161 52.96013255 33.94611161 52.96013255 35 55 C35.45850342 53.79577393 35.91700684 52.59154785 36.3894043 51.35083008 C38.11314351 46.82372839 39.83717093 42.2967365 41.5612793 37.76977539 C42.30321821 35.8215625 43.04508205 33.87332102 43.78686523 31.92504883 C47.84111409 21.27683622 51.90114968 10.63114038 56 0 C60.29 0 64.58 0 69 0 C66.18826759 9.04734562 62.52208958 17.73907523 58.9375 26.5 C57.58995999 29.80550692 56.24432246 33.11178768 54.8984375 36.41796875 C54.56568314 37.23456467 54.23292877 38.05116058 53.89009094 38.89250183 C50.91872948 46.18773707 47.98247285 53.49654794 45.0625 60.8125 C44.64411865 61.86050781 44.2257373 62.90851562 43.79467773 63.98828125 C42.86235186 66.32521513 41.93103601 68.66255194 41 71 C36.71 71 32.42 71 28 71 C25.23465318 64.21855003 22.46974004 57.43692361 19.70554161 50.65500546 C18.42130276 47.50419195 17.1368911 44.35344915 15.85205078 41.20288086 C12.97386263 34.14473397 10.09878284 27.08533999 7.22937012 20.02362061 C6.46042277 18.1324041 5.69048413 16.24158999 4.91906738 14.35137939 C4.03920075 12.19516849 3.16333782 10.0373887 2.2890625 7.87890625 C1.8348291 6.76201416 1.3805957 5.64512207 0.91259766 4.49438477 C0 2 0 2 0 0 Z " fill="#FFFFFF" transform="translate(590,832)"/>
<path d="M0 0 C3.96 0 7.92 0 12 0 C12 6.6 12 13.2 12 20 C20.25 20 28.5 20 37 20 C37 23.3 37 26.6 37 30 C28.75 30 20.5 30 12 30 C12.07409786 36.01470255 12.15701759 42.02794489 12.26245117 48.04199219 C12.29564141 50.0865108 12.32369163 52.13111974 12.34643555 54.17578125 C12.38008993 57.12018206 12.43241166 60.06375954 12.48828125 63.0078125 C12.49467117 63.9174173 12.5010611 64.82702209 12.50764465 65.76419067 C12.62580962 70.90074459 13.13292683 74.5576894 16 79 C21.76538672 83.08967473 30.44444703 80.95353498 37 80 C37 83.3 37 86.6 37 90 C32.02808243 91.9746065 27.76286576 92.33562331 22.5 92.3125 C21.76652344 92.32861328 21.03304687 92.34472656 20.27734375 92.36132812 C14.62379918 92.36638496 10.56570256 91.21483725 6.171875 87.421875 C5.70265625 86.87015625 5.2334375 86.3184375 4.75 85.75 C4.27046875 85.20859375 3.7909375 84.6671875 3.296875 84.109375 C-0.46988781 77.98271259 -0.27105757 71.43030275 -0.1953125 64.47265625 C-0.19106766 62.98928017 -0.19106766 62.98928017 -0.18673706 61.47593689 C-0.17560142 58.33799805 -0.15050903 55.20035161 -0.125 52.0625 C-0.11496165 49.92643643 -0.1058373 47.79036836 -0.09765625 45.65429688 C-0.0756838 40.43609927 -0.04227254 35.21807054 0 30 C-2.64 30 -5.28 30 -8 30 C-8 26.7 -8 23.4 -8 20 C-5.36 20 -2.72 20 0 20 C0 13.4 0 6.8 0 0 Z " fill="#FFFFFF" transform="translate(580,378)"/>
<path d="M0 0 C1.04510742 0.13220947 1.04510742 0.13220947 2.11132812 0.26708984 C7.72675604 1.0676148 12.15277878 2.64881006 17.125 5.3125 C17.125 9.9325 17.125 14.5525 17.125 19.3125 C16.23296875 18.81878906 15.3409375 18.32507813 14.421875 17.81640625 C13.23971392 17.16903232 12.05741496 16.52191011 10.875 15.875 C10.28847656 15.54951172 9.70195313 15.22402344 9.09765625 14.88867188 C2.12036107 11.08643798 -3.9744105 10.58321481 -11.875 11.3125 C-17.16679216 12.88296735 -21.05194459 15.50285005 -23.875 20.3125 C-28.04463694 29.78894759 -28.41585439 40.54628053 -25.25 50.375 C-22.90833172 56.00162343 -20.09918724 58.78951708 -14.54296875 61.4140625 C-6.83393932 64.01007534 1.87917533 62.74120816 9.125 59.3125 C11.89213757 57.75511604 14.48619187 56.08769819 17.125 54.3125 C17.125 58.9325 17.125 63.5525 17.125 68.3125 C4.27316027 73.7605625 -7.68799531 76.64603253 -21.1640625 71.42578125 C-30.3338445 67.08129652 -35.60068561 60.65745168 -39.02734375 51.09765625 C-41.82114307 38.6221192 -41.01850456 25.20810516 -34.58984375 14.08984375 C-29.96190859 7.19306015 -22.97639489 2.24979008 -14.875 0.3125 C-9.75778643 -0.62816426 -5.13416643 -0.67704654 0 0 Z " fill="#FFFFFF" transform="translate(745.875,830.6875)"/>
<path d="M0 0 C3.96 0 7.92 0 12 0 C12.33 2.97 12.66 5.94 13 9 C13.71285156 8.51789062 14.42570313 8.03578125 15.16015625 7.5390625 C24.18386285 1.58803123 31.15198673 -0.77357309 42 0 C42.66 0.33 43.32 0.66 44 1 C44 4.96 44 8.92 44 13 C42.87722656 12.95359375 41.75445313 12.9071875 40.59765625 12.859375 C28.7745022 12.5152657 28.7745022 12.5152657 18 17 C17.15123291 17.28294922 16.30246582 17.56589844 15.42797852 17.85742188 C12.48001931 20.45885878 12.58857513 21.21341036 12.34057617 25.0222168 C12.29935935 27.16421304 12.28531001 29.30683968 12.29296875 31.44921875 C12.27784744 32.5769722 12.26272614 33.70472565 12.24714661 34.86665344 C12.20410901 38.47380314 12.19541566 42.08011862 12.1875 45.6875 C12.16436835 48.13088181 12.13900582 50.57424359 12.11132812 53.01757812 C12.04831639 59.01179302 12.01610665 65.00548292 12 71 C8.04 71 4.08 71 0 71 C0 47.57 0 24.14 0 0 Z " fill="#FFFFFF" transform="translate(543,832)"/>
<path d="M0 0 C3.96 0 7.92 0 12 0 C12.33 2.97 12.66 5.94 13 9 C13.71285156 8.51789063 14.42570313 8.03578125 15.16015625 7.5390625 C24.18386285 1.58803123 31.15198673 -0.77357309 42 0 C42.66 0.33 43.32 0.66 44 1 C44 4.96 44 8.92 44 13 C42.87722656 12.95359375 41.75445313 12.9071875 40.59765625 12.859375 C28.7745022 12.5152657 28.7745022 12.5152657 18 17 C17.15123291 17.28294922 16.30246582 17.56589844 15.42797852 17.85742188 C12.48001931 20.45885878 12.58857513 21.21341036 12.34057617 25.0222168 C12.29935935 27.16421304 12.28531001 29.30683968 12.29296875 31.44921875 C12.27784744 32.5769722 12.26272614 33.70472565 12.24714661 34.86665344 C12.20410901 38.47380314 12.19541566 42.08011862 12.1875 45.6875 C12.16436835 48.13088181 12.13900582 50.57424359 12.11132812 53.01757812 C12.04831639 59.01179302 12.01610665 65.00548292 12 71 C8.04 71 4.08 71 0 71 C0 47.57 0 24.14 0 0 Z " fill="#FFFFFF" transform="translate(631,398)"/>
<path d="M0 0 C3.96 0 7.92 0 12 0 C12 23.43 12 46.86 12 71 C8.04 71 4.08 71 0 71 C0 47.57 0 24.14 0 0 Z " fill="#FFFFFF" transform="translate(675,832)"/>
<path d="M0 0 C4.62 0 9.24 0 14 0 C14 3.96 14 7.92 14 12 C9.38 12 4.76 12 0 12 C0 8.04 0 4.08 0 0 Z " fill="#FFFFFF" transform="translate(674,808)"/>
<path d="" fill="#FFFFFF" transform="translate(0,0)"/>
<path d="" fill="#FFFFFF" transform="translate(0,0)"/>
<path d="" fill="#FFFFFF" transform="translate(0,0)"/>
<path d="" fill="#FFFFFF" transform="translate(0,0)"/>
</svg>
